<?xml version="1.0" encoding="UTF-8"?>
<svg width="117px" height="19px" viewBox="0 0 117 19" version="1.1" xmlns="http://www.w3.org/2000/svg" xmlns:xlink="http://www.w3.org/1999/xlink">
    <defs>
        <polygon id="path-1" points="0.06 18.94 117 18.94 117 0.423 0.06 0.423"></polygon>
    </defs>
    <g id="Page-1" stroke="none" stroke-width="1" fill="none" fill-rule="evenodd">
        <g id="logo">
            <path d="M21.582,11.91 C20.768,8.536 16.873,8.051 15.212,7.844 C15.204,7.844 15.201,7.844 15.195,7.842 C13.026,7.638 11.984,7.355 11.91,6.279 C11.882,5.956 11.91,5.5 12.191,5.137 C12.769,4.397 13.91,4.111 14.783,4.097 C15.998,4.073 17.365,4.587 17.627,5.761 C17.691,6.051 17.956,6.255 18.253,6.244 L20.666,6.146 C20.844,6.142 21.005,6.061 21.117,5.927 C21.229,5.792 21.276,5.619 21.254,5.446 C21.029,3.843 20.227,2.528 18.93,1.641 C17.832,0.886 16.399,0.472 14.895,0.472 C12.617,0.472 10.465,1.424 9.283,2.96 C8.5,3.98 8.127,5.27 8.241,6.601 C8.243,6.614 8.243,6.628 8.249,6.645 C8.618,10.885 12.778,11.305 14.783,11.508 C16.414,11.671 17.777,11.873 17.965,12.696 C18.002,12.868 18.024,13.018 18.024,13.142 C18.024,14.462 16.374,15.28 14.845,15.28 C13.482,15.28 11.931,14.577 11.812,13.437 C11.81,13.416 11.805,13.395 11.8,13.375 L11.788,13.197 C11.767,12.87 11.489,12.614 11.161,12.623 L8.699,12.671 C8.532,12.676 8.373,12.745 8.26,12.868 C8.144,12.991 8.086,13.154 8.096,13.319 L8.12,13.777 C8.12,13.788 8.12,13.798 8.121,13.808 C8.468,17.134 11.831,18.928 14.822,18.928 C18.213,18.928 21.717,16.772 21.717,13.164 C21.717,12.806 21.672,12.356 21.585,11.934 C21.585,11.925 21.582,11.917 21.582,11.91" id="Fill-1" fill="#FFFFFF"></path>
            <path d="M36.422,0.639 L23.764,0.639 C23.425,0.639 23.147,0.916 23.147,1.257 L23.147,3.526 C23.147,3.869 23.425,4.143 23.764,4.143 L28.271,4.143 L28.271,18.241 C28.271,18.577 28.543,18.856 28.884,18.856 L31.325,18.856 C31.666,18.856 31.941,18.577 31.941,18.241 L31.941,4.143 L36.422,4.143 C36.764,4.143 37.038,3.869 37.038,3.526 L37.038,1.257 C37.038,0.916 36.764,0.639 36.422,0.639" id="Fill-2" fill="#FFFFFF"></path>
            <path d="M50.58,15.11 L43.345,15.11 L43.345,11.559 L50.389,11.559 C50.727,11.559 51.005,11.28 51.005,10.943 L51.005,8.479 C51.005,8.137 50.727,7.863 50.389,7.863 L43.345,7.863 L43.345,4.336 L50.557,4.336 C50.899,4.336 51.172,4.06 51.172,3.718 L51.172,1.279 C51.172,0.941 50.899,0.663 50.557,0.663 L40.265,0.663 C39.926,0.663 39.651,0.941 39.651,1.279 L39.651,18.168 C39.651,18.507 39.926,18.785 40.265,18.785 L50.58,18.785 C50.922,18.785 51.195,18.507 51.195,18.168 L51.195,15.728 C51.195,15.385 50.922,15.11 50.58,15.11" id="Fill-3" fill="#FFFFFF"></path>
            <path d="M65.301,15.11 L57.968,15.11 L57.968,1.279 C57.968,0.941 57.694,0.663 57.352,0.663 L54.914,0.663 C54.572,0.663 54.298,0.941 54.298,1.279 L54.298,18.168 C54.298,18.507 54.572,18.785 54.914,18.785 L65.301,18.785 C65.641,18.785 65.915,18.507 65.915,18.168 L65.915,15.728 C65.915,15.385 65.641,15.11 65.301,15.11" id="Fill-4" fill="#FFFFFF"></path>
            <path d="M74.92,9.505 L71.823,9.505 L71.823,4.336 L74.92,4.336 C76.615,4.336 77.373,5.641 77.373,6.932 C77.373,8.216 76.615,9.505 74.92,9.505 Z M74.92,0.639 L68.744,0.639 C68.404,0.639 68.129,0.916 68.129,1.257 L68.129,18.168 C68.129,18.507 68.404,18.785 68.744,18.785 L71.209,18.785 C71.549,18.785 71.823,18.507 71.823,18.168 L71.823,13.154 L74.92,13.154 C76.797,13.154 78.38,12.474 79.495,11.187 C80.48,10.054 81.021,8.536 81.021,6.91 C81.021,5.281 80.48,3.757 79.497,2.621 C78.38,1.327 76.797,0.639 74.92,0.639 L74.92,0.639 Z" id="Fill-5" fill="#FFFFFF"></path>
            <g id="Group-10">
                <mask id="mask-2" fill="white">
                    <use xlink:href="#path-1"></use>
                </mask>
                <g id="Clip-7"></g>
                <path d="M90.127,8.974 L87.278,8.974 C87.179,8.974 87.082,8.996 87.001,9.04 L87.001,4.336 L90.127,4.336 C91.818,4.336 92.575,5.495 92.575,6.642 C92.575,7.804 91.818,8.974 90.127,8.974 Z M92.363,12.167 C93.438,11.803 94.345,11.174 95.017,10.316 C95.814,9.304 96.25,8 96.25,6.642 C96.25,3.659 94.146,0.639 90.127,0.639 L83.968,0.639 C83.629,0.639 83.352,0.916 83.352,1.257 L83.352,18.168 C83.352,18.507 83.629,18.785 83.968,18.785 L86.383,18.785 C86.727,18.785 87.001,18.507 87.001,18.168 L87.001,11.378 L92.961,18.56 C93.08,18.703 93.25,18.785 93.434,18.785 L96.602,18.785 C96.941,18.785 97.216,18.507 97.216,18.168 C97.216,18 97.152,17.85 97.046,17.74 L92.363,12.167 L92.363,12.167 Z" id="Fill-6" fill="#FFFFFF" mask="url(#mask-2)"></path>
                <path d="M111.696,13.646 C110.644,14.7 109.208,15.303 107.761,15.303 C106.318,15.303 104.901,14.702 103.871,13.646 C102.819,12.595 102.239,11.199 102.239,9.71 C102.239,8.225 102.819,6.828 103.876,5.77 C104.901,4.721 106.318,4.121 107.761,4.121 C109.208,4.121 110.644,4.721 111.688,5.77 C112.732,6.832 113.302,8.231 113.302,9.71 C113.302,11.191 112.732,12.589 111.696,13.646 Z M114.313,3.171 C114.312,3.168 114.309,3.166 114.305,3.163 C112.539,1.398 110.214,0.423 107.761,0.423 C105.328,0.423 102.948,1.423 101.23,3.171 C99.496,4.956 98.544,7.281 98.544,9.71 C98.544,12.143 99.496,14.466 101.23,16.252 C102.924,17.995 105.301,19 107.761,19 C110.24,19 112.568,18.025 114.313,16.252 C116.044,14.466 117,12.143 117,9.71 C117,7.281 116.044,4.956 114.313,3.171 L114.313,3.171 Z" id="Fill-8" fill="#FFFFFF" mask="url(#mask-2)"></path>
                <path d="M1.738,4.735 C2.072,4.394 2.535,4.199 3.005,4.199 C3.477,4.199 3.944,4.394 4.285,4.735 C4.625,5.083 4.811,5.54 4.811,6.022 C4.811,6.505 4.625,6.959 4.287,7.305 C3.944,7.648 3.477,7.844 3.005,7.844 C2.535,7.844 2.072,7.648 1.736,7.305 C1.395,6.962 1.205,6.506 1.205,6.022 C1.205,5.538 1.395,5.082 1.738,4.735 Z M3.005,9.049 C3.813,9.049 4.571,8.731 5.141,8.153 C5.705,7.571 6.016,6.814 6.016,6.022 C6.016,5.229 5.705,4.471 5.141,3.89 C5.14,3.889 5.14,3.889 5.138,3.887 C4.563,3.312 3.805,2.995 3.005,2.995 C2.212,2.995 1.437,3.32 0.876,3.89 C0.311,4.471 0,5.229 0,6.022 C0,6.814 0.311,7.571 0.876,8.153 C1.428,8.721 2.203,9.049 3.005,9.049 L3.005,9.049 Z" id="Fill-9" fill="#FFFFFF" mask="url(#mask-2)"></path>
            </g>
        </g>
    </g>
</svg>